<mxfile host="app.diagrams.net" modified="2023-09-13T19:20:51.509Z" agent="Mozilla/5.0 (Windows NT 10.0; Win64; x64) AppleWebKit/537.36 (KHTML, like Gecko) Chrome/116.0.0.0 Safari/537.36" version="21.7.5" etag="DK0B7M_r01pZ7cLVR5uK" type="github">
  <diagram name="Страница — 1" id="lCHvytkP3d5E1lyGcTcH">
    <mxGraphModel>
      <root>
        <mxCell id="0" />
        <mxCell id="1" parent="0" />
      </root>
    </mxGraphModel>
  </diagram>
</mxfile>
